<svg xmlns="http://www.w3.org/2000/svg" width="246.86" height="179.803" viewBox="0 0 246.86 179.803">
  <g id="Groupe_330" data-name="Groupe 330" transform="translate(5.028 -15.629)">
    <path id="Tracé_741" data-name="Tracé 741" d="M-179.456,245.834c-1.661,1.847-25.99,38.1-56.012,4.656" transform="translate(321.977 -172.865)" fill="none" stroke="#f36126" stroke-linecap="round" stroke-width="10"/>
    <path id="Tracé_742" data-name="Tracé 742" d="M-211.945,225.789s-10.754-10.16-23.525-10.689c-9.442-.391-19.828,1.165-27.334,10.16-22.249,26.666,3.137,69.847,52.427,92.282" transform="translate(320.859 -173.733)" fill="none" stroke="#f36126" stroke-linecap="round" stroke-width="10"/>
    <path id="Tracé_743" data-name="Tracé 743" d="M-198.979,217.841s9.15-7.324,21.23-7.324c9.019,0,18.552,2.514,25.16,10.909,22.318,28.355-9.356,68.5-42.111,88.571" transform="translate(323.129 -173.618)" fill="none" stroke="#f36126" stroke-linecap="round" stroke-width="10"/>
    <path id="Tracé_744" data-name="Tracé 744" d="M-204.727,340.241s-47.049-11.006-74.831-56.724" transform="translate(320.586 -175.479)" fill="none" stroke="#102346" stroke-linecap="round" stroke-miterlimit="10" stroke-width="10"/>
    <path id="Tracé_745" data-name="Tracé 745" d="M-200.717,242s17.9-22.5,31.815-9.736c15.683,14.393-7.618,41.909-23.3,52.279" transform="translate(323.074 -174.072)" fill="none" stroke="#102346" stroke-linecap="round" stroke-miterlimit="10" stroke-width="10"/>
    <path id="Tracé_746" data-name="Tracé 746" d="M-128.771,230.7s7.774,28.991-15.139,56.435" transform="translate(324.866 -174.132)" fill="none" stroke="#fff" stroke-linecap="round" stroke-width="10"/>
    <path id="Tracé_747" data-name="Tracé 747" d="M-263.766,202.5s-11.805,4.111-19.268,18.626" transform="translate(320.477 -173.413)" fill="none" stroke="#f36126" stroke-linecap="round" stroke-width="10"/>
    <path id="Tracé_748" data-name="Tracé 748" d="M-216.568,244.664s-14.85-17.962-28.58-8.982c-19.063,12.468,2.816,45.9,37.316,62.524" transform="translate(321.449 -174.195)" fill="none" stroke="#fff" stroke-linecap="round" stroke-width="10"/>
    <path id="Tracé_749" data-name="Tracé 749" d="M-152.5,309.146" transform="translate(324.595 -176.132)" fill="none" stroke="#447de8" stroke-linecap="round" stroke-width="10"/>
    <path id="Tracé_750" data-name="Tracé 750" d="M-168.706,315.378a119.04,119.04,0,0,0,14.794-13.365" transform="translate(324.084 -175.95)" fill="none" stroke="#f36126" stroke-linecap="round" stroke-width="10"/>
    <path id="Tracé_751" data-name="Tracé 751" d="M-201.369,200.273S-177.4,186.727-153.646,199" transform="translate(323.053 -173.193)" fill="none" stroke="#102346" stroke-linecap="round" stroke-miterlimit="10" stroke-width="10"/>
    <path id="Tracé_752" data-name="Tracé 752" d="M-125.464,315.988s-12.771,24.764-53.1,48.893" transform="translate(323.773 -176.307)" fill="none" stroke="#f36126" stroke-linecap="round" stroke-width="10"/>
    <path id="Tracé_753" data-name="Tracé 753" d="M0,0S16.729,2.017,33.45,27.32" transform="matrix(0.755, 0.656, -0.656, 0.755, 207.709, 37.224)" fill="none" stroke="#102346" stroke-linecap="round" stroke-miterlimit="10" stroke-width="10"/>
    <path id="Tracé_754" data-name="Tracé 754" d="M-319.3,257.345s-1.344,19.685,14.787,43.814" transform="translate(319.332 -174.812)" fill="none" stroke="#fff" stroke-linecap="round" stroke-width="10"/>
  </g>
</svg>
