<svg xmlns="http://www.w3.org/2000/svg" width="12.028" height="11.867" viewBox="0 0 12.028 11.867">
  <g id="Groupe_324" data-name="Groupe 324" transform="translate(-540.999 -1660.577)">
    <g id="Groupe_320" data-name="Groupe 320" transform="translate(316.58 1436.279)">
      <path id="Tracé_717" data-name="Tracé 717" d="M230.544,224.3a5.846,5.846,0,0,0-5.907,5.784,5.688,5.688,0,0,0,.848,2.983l-1.066,3.1,3.266-1.025a5.975,5.975,0,0,0,8.026-2.268,5.717,5.717,0,0,0-2.318-7.855,6.008,6.008,0,0,0-2.853-.72Zm2.771,7.094c-.148-.079-.876-.464-1.011-.518s-.236-.082-.342.062-.408.466-.495.561-.18.1-.328.025a4.118,4.118,0,0,1-1.188-.775,4.461,4.461,0,0,1-.8-1.053c-.082-.151,0-.227.078-.3s.157-.167.237-.25a1.009,1.009,0,0,0,.16-.24.268.268,0,0,0,0-.259c-.035-.075-.309-.813-.423-1.112s-.241-.256-.33-.259-.188-.019-.289-.023a.56.56,0,0,0-.409.169,1.641,1.641,0,0,0-.575,1.212,2.834,2.834,0,0,0,.557,1.55,6.133,6.133,0,0,0,2.49,2.324c1.51.647,1.518.449,1.8.435a1.527,1.527,0,0,0,1.045-.665,1.211,1.211,0,0,0,.115-.7c-.043-.069-.142-.109-.29-.189Z" transform="translate(0)" fill="#f36126" fill-rule="evenodd"/>
    </g>
  </g>
</svg>
